<?xml version="1.0" encoding="utf-8"?>
<!-- Generator: Adobe Illustrator 21.1.0, SVG Export Plug-In . SVG Version: 6.00 Build 0)  -->
<svg version="1.1" id="Layer_1" xmlns="http://www.w3.org/2000/svg" xmlns:xlink="http://www.w3.org/1999/xlink" x="0px" y="0px"
	 viewBox="0 0 35.5 26.1" style="enable-background:new 0 0 35.5 26.1;" xml:space="preserve">
<style type="text/css">
	.st0{fill:#FFFFFF;}
</style>
<g>
	<g>
		<path class="st0" d="M29.4,25.8c-0.3,0-0.6-0.1-0.9-0.4l-23-23C5,2,5,1.2,5.5,0.7c0.5-0.5,1.3-0.5,1.8,0l23,23
			c0.5,0.5,0.5,1.3,0,1.8C30,25.7,29.7,25.8,29.4,25.8z"/>
	</g>
	<g>
		<path class="st0" d="M6.3,25.8c-0.3,0-0.6-0.1-0.9-0.4C5,25,5,24.2,5.5,23.7l23-23c0.5-0.5,1.3-0.5,1.8,0c0.5,0.5,0.5,1.3,0,1.8
			l-23,23C7,25.7,6.7,25.8,6.3,25.8z"/>
	</g>
</g>
</svg>
