<svg xmlns="http://www.w3.org/2000/svg" width="35.2" height="20.1" viewBox="0 0 35.2 20.1"><title>menu</title><path d="M33.8,2.5H1.3A1.31,1.31,0,0,1,0,1.3,1.4,1.4,0,0,1,1.3,0H33.9a1.32,1.32,0,0,1,1.3,1.3A1.33,1.33,0,0,1,33.8,2.5Z" style="fill:#e79b00"/><path d="M33.8,11.3H1.3a1.3,1.3,0,0,1,0-2.6H33.9A1.32,1.32,0,0,1,35.2,10,1.42,1.42,0,0,1,33.8,11.3Z" style="fill:#e79b00"/><path d="M33.8,20.1H1.3a1.3,1.3,0,1,1,0-2.6H33.9a1.32,1.32,0,0,1,1.3,1.3A1.42,1.42,0,0,1,33.8,20.1Z" style="fill:#e79b00"/></svg>