<svg xmlns="http://www.w3.org/2000/svg" viewBox="0 0 41.85 30.12"><defs><style>.cls-1{fill:#e78b24;fill-rule:evenodd;}</style></defs><title>email</title><g id="Layer_2" data-name="Layer 2"><g id="Layer_1-2" data-name="Layer 1"><path class="cls-1" d="M41.8,4.62c0-1.41.29-3.74-.53-4.33C40.67-.14,39.19,0,38.21,0h-37C.79.33.4.31.17.82A16.79,16.79,0,0,0,.05,4.7V25.6c0,1.4-.29,3.61.54,4.21.54.4,1.66.29,2.6.29H38.91c1.05,0,2.16.11,2.6-.49s.29-2.45.29-3.6Zm-5-1.15v0a6.81,6.81,0,0,0-.75.66c-.7.53-1.29,1.21-2,1.73C31.83,7.57,30,9.65,27.76,11.31c-.56.42-1,1-1.57,1.45-1.06.8-2,1.76-3,2.56l-.58.58A8.76,8.76,0,0,0,21,17.3c-.48-.17-.81-.74-1.2-1-.94-.71-1.74-1.56-2.68-2.27l-.58-.58c-2-1.5-3.67-3.37-5.66-4.87-.56-.43-1-1-1.57-1.45-.71-.54-1.31-1.16-2-1.69L6.7,4.83A9.48,9.48,0,0,1,5.13,3.47ZM4.18,24.78a7,7,0,0,0-1.32,1.15h0V5.12C3.63,5.65,4.24,6.48,5,7.06c2.32,1.75,4.28,3.94,6.6,5.7.2.19.39.38.58.58.61.45,1.13,1,1.74,1.44a4.63,4.63,0,0,0,.7.62,4.58,4.58,0,0,1-1,.87c-.54.4-1,.95-1.53,1.36-.39.29-.69.74-1.07,1-1.38,1-2.51,2.35-3.89,3.39-.38.29-.68.74-1.07,1-.57.43-1,.94-1.61,1.37Zm32.25,2.51h-31a2.8,2.8,0,0,1,.66-.57c.54-.41,1-.95,1.53-1.37.39-.29.69-.74,1.07-1C10,23.38,11,22.2,12.23,21.27c.39-.3.69-.75,1.08-1,.81-.61,1.47-1.42,2.27-2a4.86,4.86,0,0,0,1.07-.95c.46.15.76.68,1.12.95.59.45,1.1,1,1.69,1.4.28.22.5.58.83.75a1.69,1.69,0,0,0,1.36,0c.82-.51,1.43-1.37,2.19-1.95a5.47,5.47,0,0,0,1.28-1.11c.35.07.53.47.78.66.82.61,1.47,1.42,2.27,2,2.2,1.66,4,3.8,6.2,5.46.73.55,1.29,1.35,2.06,1.85Zm2.65-1.36a23.81,23.81,0,0,1-2-1.77c-1.66-1.25-3-2.84-4.67-4.09-.39-.29-.69-.74-1.08-1-.69-.53-1.28-1.17-2-1.7l-.66-.66a8,8,0,0,1-1.4-1.24l0,0c.78-.51,1.37-1.3,2.1-1.86,1.53-1.15,2.82-2.56,4.34-3.71.44-.34.8-.83,1.24-1.16.71-.54,1.31-1.16,2-1.69l.58-.58A8,8,0,0,0,39,5.12h0Z"/></g></g></svg>