<svg xmlns="http://www.w3.org/2000/svg" viewBox="0 0 33.31 37.56"><defs><style>.cls-1{fill:#e78b24;fill-rule:evenodd;}</style></defs><title>icon-phone</title><g id="Layer_2" data-name="Layer 2"><g id="Logo3"><path class="cls-1" d="M21.39,11.3c.3.24.64.73,1,.85l5.24-6.63A12.75,12.75,0,0,0,29.53,3L28.09,1.87C27.24,1.2,26.39.61,25.48,0c-1.22.13-1.37.81-1.89,1.47-.21.27-.49.5-.71.76s-.6.89-.94,1.31c-.82,1-1.71,2-2.45,3.07-.32.48-1,.85-1.08,1.49a1.52,1.52,0,0,0,.42,1.21ZM32.88,7a7.77,7.77,0,0,0-.76-1.68c-.17-.25-.51-.44-.65-.73l-.17,0Q28.62,8,25.91,11.42A14.07,14.07,0,0,0,24,13.92c.26.29.21.7.36,1.15.52,1.58-.61,2.95-1.29,3.8A60.3,60.3,0,0,1,18.2,25c-.06.06,0,.17-.09.24-.74.9-2.16,2.45-4,2.22-.26,0-.58-.1-.87-.13q-2.69,3.42-5.39,6.83c-.35.44-1.89,2.08-1.93,2.55a5,5,0,0,1,.85.48,7,7,0,0,0,1.81.36c2.45.36,6-1.17,7.59-2a30.6,30.6,0,0,0,6.12-4.91,30.25,30.25,0,0,0,5.28-6.25l.46-.51c.42-.71.95-1.38,1.36-2.09a31.09,31.09,0,0,0,3.28-7.33C33.1,12.81,33.75,9.22,32.88,7ZM11.25,26c-.53-.12-1-.67-1.37-1L7.56,23.18c-.13-.07-.25,0-.36-.13l-.79.09c-.7.32-1.8,2.13-2.31,2.77s-1.39,1.46-1.91,2.27A19.21,19.21,0,0,1,.85,30c-.31.39-1.11.92-.76,1.79s1.67,1.54,2.28,2c.37.29,1.28,1.24,1.74,1.28l5.24-6.63A13.8,13.8,0,0,0,11.25,26Z"/></g></g></svg>