<svg xmlns="http://www.w3.org/2000/svg" viewBox="0 0 36.68 41.36"><defs><style>.cls-1{fill:#e78b24;fill-rule:evenodd;}</style></defs><title>phone</title><g id="Layer_2" data-name="Layer 2"><g id="Layer_1-2" data-name="Layer 1"><path class="cls-1" d="M23.56,12.44c.33.27.7.81,1.11,1l5.77-7.31c.39-.49,2-2.24,2.08-2.75L30.93,2.06C30,1.32,29.06.67,28.06,0,26.72.14,26.56.89,26,1.62c-.24.3-.54.54-.78.84-.38.45-.67,1-1,1.43-.91,1.13-1.89,2.18-2.7,3.39-.36.53-1.06.94-1.2,1.64a1.67,1.67,0,0,0,.47,1.33ZM36.21,7.69a8.7,8.7,0,0,0-.83-1.86c-.2-.27-.56-.48-.72-.79l-.19,0-5.93,7.51a15.12,15.12,0,0,0-2.14,2.76c.28.32.23.77.39,1.27.58,1.74-.67,3.24-1.41,4.18A64.81,64.81,0,0,1,20,27.48c-.07.06,0,.19-.1.26-.81,1-2.37,2.7-4.43,2.45l-1-.15L8.61,37.56c-.39.49-2.08,2.3-2.13,2.82a5.37,5.37,0,0,1,.94.52,7.64,7.64,0,0,0,2,.4c2.7.39,6.64-1.29,8.36-2.2a32.4,32.4,0,0,0,6.74-5.41,33.45,33.45,0,0,0,5.82-6.87l.5-.56c.47-.79,1.05-1.52,1.5-2.31A34.84,34.84,0,0,0,36,15.88C36.45,14.11,37.17,10.15,36.21,7.69Zm-23.83,21c-.58-.14-1.06-.74-1.5-1.09l-2.55-2c-.15-.07-.28-.05-.4-.14l-.87.1c-.78.35-2,2.34-2.54,3.05A31.33,31.33,0,0,0,2.41,31,21.57,21.57,0,0,1,.94,33c-.35.44-1.23,1-.84,2s1.84,1.7,2.51,2.23C3,37.56,4,38.6,4.53,38.65l5.77-7.31A15.05,15.05,0,0,0,12.38,28.66Z"/></g></g></svg>