<svg xmlns="http://www.w3.org/2000/svg" xmlns:xlink="http://www.w3.org/1999/xlink" width="693.49" height="153.93" viewBox="0 0 693.49 153.93"><defs><linearGradient id="a" x1="72.49" y1="11.25" x2="72.49" y2="157.1" gradientUnits="userSpaceOnUse"><stop offset="0" stop-color="#848587"/><stop offset="0.48" stop-color="#e5e6e8"/><stop offset="0.5" stop-color="#b4b2b4"/><stop offset="1" stop-color="#848587"/></linearGradient><linearGradient id="b" x1="81.45" y1="0.83" x2="81.45" y2="145.81" gradientUnits="userSpaceOnUse"><stop offset="0" stop-color="#cc6a00"/><stop offset="0.46" stop-color="#ffa405"/><stop offset="0.47" stop-color="#e37f00"/><stop offset="0.85" stop-color="#e98506"/><stop offset="1" stop-color="#ed890a"/></linearGradient><linearGradient id="c" x1="76.98" y1="24.83" x2="76.98" y2="134.85" xlink:href="#b"/><linearGradient id="d" x1="454.25" y1="24.24" x2="454.25" y2="46.25" gradientUnits="userSpaceOnUse"><stop offset="0" stop-color="#757678"/><stop offset="0.27" stop-color="#a5a6a7"/><stop offset="0.28" stop-color="#bfc0c0"/><stop offset="1" stop-color="#666"/></linearGradient><linearGradient id="e" x1="454.25" y1="108.13" x2="454.25" y2="132.32" xlink:href="#d"/><linearGradient id="f" x1="446.52" y1="43.6" x2="446.52" y2="102.66" xlink:href="#b"/><linearGradient id="g" x1="474.61" y1="52.35" x2="474.61" y2="94.47" xlink:href="#b"/></defs><title>kubota-craig-logo</title><path d="M3.8,12.76H141.17V150.13H3.8ZM0,9H145v145H0Z" style="fill-rule:evenodd;fill:url(#a)"/><path d="M12.76,3.8H150.13V141.17H12.76ZM9,0h145V145H9Z" style="fill-rule:evenodd;fill:url(#b)"/><path d="M83.94,91.09a15.16,15.16,0,0,1-9.39,3.44c-6,0-11-4.58-11-11.74,0-4.58,2-7.27,4-8.7,1,1.43,4.64,5.55,6.13,7.16s7,7,10.31,9.85m10.63.4c-1.06-.76-2.27-1.68-3.64-2.81,3.26-3.84,5.61-9.16,5.61-13.57,0-.69-.86-1-1.95-1.14a64.19,64.19,0,0,0-6.87-.4c-.46,0-.92.12-.92.57s.34.46.69.46a4.28,4.28,0,0,1,2.81.86,3.38,3.38,0,0,1,1.09,2.63,17.25,17.25,0,0,1-2.75,8.82c-1.09-1-8.13-7.33-10.08-9.56-4.58-5.1-9.5-9.68-9.5-15.06a6.12,6.12,0,0,1,6.13-6.53,7.88,7.88,0,0,1,6.36,2.58,7.44,7.44,0,0,1,1.66,4.81c0,.86.06,1.09.4,1.09s.57-.11.69-1a68.82,68.82,0,0,0,.63-7.33c0-.69,0-1.15-1-1.49A19.6,19.6,0,0,0,77,53.25c-10,0-14,6-13.91,10.54a14,14,0,0,0,.35,3c-1-.87-1.95-1.8-2.9-2.71C58.32,62,47.09,49.88,45,47.19,47,45.13,55.63,36.54,57.4,34.82a18.3,18.3,0,0,1,6.18-4.29,11.18,11.18,0,0,1,3.32-.63c.57,0,.86-.12.86-.52s-.4-.51-1-.51c-1.77,0-4.92.17-6.7.17-1.55,0-4.69-.17-5.9-.17-.63,0-.92.11-.92.51s.23.46.74.57.8.52.8,1.15c0,1-1.26,2.41-2.86,4.29S41.94,45.88,40,48h-.29V45.47c0-8.7,0-10.31.11-12.14.11-2,.57-3,2.12-3.26a8.49,8.49,0,0,1,1.6-.17c.46,0,.8-.12.8-.52s-.4-.51-1.2-.51c-1.95,0-5.55.17-6.93.17s-5-.17-8-.17c-.86,0-1.26.11-1.26.51s.34.52,1,.52a11.75,11.75,0,0,1,2.23.17c1.89.4,2.35,1.32,2.46,3.26s.11,3.44.11,12.14V55.55c0,5.27,0,9.79-.29,12.2-.23,1.66-.52,2.92-1.66,3.15a9.32,9.32,0,0,1-2.06.23c-.69,0-.92.17-.92.46s.4.57,1.14.57c2.29,0,5.9-.17,7.21-.17s5,.17,8.24.17c.63,0,1.09-.17,1.09-.57s-.29-.46-.74-.46a24.07,24.07,0,0,1-2.81-.23c-1.43-.23-1.95-1.49-2.06-3.09-.17-2.46-.17-7-.17-12.25V50.34H40l.63.86c1.2,1.66,12.48,14.89,15,17.12s4,3.44,7.1,3.72c.91.09,1.73.11,2.82.11-3.48,1.88-8.86,6.93-8.86,13.33,0,5,3.66,12.65,15.92,12.65,7.84,0,11.68-3.49,13.57-5.21a22.28,22.28,0,0,0,5.59,3.42,22.76,22.76,0,0,0-1.69,8.46c0,5.55,1.49,12,7.1,16.89,5.21,4.52,11.8,6.24,19.64,6.24,3.66,0,8-.4,10.31-1.32a2,2,0,0,0,1.49-1.66,54.49,54.49,0,0,0,1.26-7.62c0-.46-.11-.86-.52-.86s-.57.23-.74,1.15a9.56,9.56,0,0,1-1.95,3.78c-2.29,2.63-5.38,3.21-10.48,3.21-7.67,0-18-6.76-18-20.38a28.8,28.8,0,0,1,.74-6.9,18.58,18.58,0,0,1,.84-2.58,14.73,14.73,0,0,1,3.69-5.34c2.52-2.29,5.78-3.55,10.76-3.55,5.27,0,9.73,1.55,11.62,3.55A8.18,8.18,0,0,1,128,94.67c0,.8.11,1.26.57,1.26s.63-.46.69-1.32c.11-1.14.06-4.29.17-6.18s.29-2.69.29-3.15-.23-.63-.86-.69c-1.72-.17-3.55-.69-5.73-1a56.62,56.62,0,0,0-8.3-.57c-8.53,0-14,2.29-18.09,6.07a19.73,19.73,0,0,0-2.2,2.38Z" style="fill-rule:evenodd;opacity:0.09"/><path d="M82.52,89.67a15.16,15.16,0,0,1-9.39,3.44c-6,0-11-4.58-11-11.74,0-4.58,2-7.27,4-8.7,1,1.43,4.64,5.55,6.13,7.16s7,7,10.31,9.85m10.63.4c-1.06-.76-2.27-1.68-3.64-2.81,3.26-3.84,5.61-9.16,5.61-13.57,0-.69-.86-1-1.95-1.14a64.19,64.19,0,0,0-6.87-.4c-.46,0-.92.12-.92.57s.34.46.69.46a4.28,4.28,0,0,1,2.81.86A3.38,3.38,0,0,1,90,76.67a17.25,17.25,0,0,1-2.75,8.82c-1.09-1-8.13-7.33-10.08-9.56-4.58-5.1-9.5-9.68-9.5-15.06a6.12,6.12,0,0,1,6.13-6.53,7.88,7.88,0,0,1,6.36,2.58,7.44,7.44,0,0,1,1.66,4.81c0,.86.06,1.09.4,1.09s.57-.11.69-1a68.82,68.82,0,0,0,.63-7.33c0-.69,0-1.15-1-1.49a19.6,19.6,0,0,0-6.93-1.2c-10,0-14,6-13.91,10.54a14,14,0,0,0,.35,3c-1-.87-1.95-1.8-2.9-2.71-2.23-2.12-13.46-14.2-15.52-16.89C45.56,43.71,54.2,35.12,56,33.4a18.3,18.3,0,0,1,6.18-4.29,11.18,11.18,0,0,1,3.32-.63c.57,0,.86-.12.86-.52s-.4-.51-1-.51c-1.77,0-4.92.17-6.7.17-1.55,0-4.69-.17-5.9-.17-.63,0-.92.11-.92.51s.23.46.74.57.8.52.8,1.15c0,1-1.26,2.41-2.86,4.29s-10,10.48-12,12.6h-.29V44.05c0-8.7,0-10.31.11-12.14.11-2,.57-3,2.12-3.26a8.49,8.49,0,0,1,1.6-.17c.46,0,.8-.12.8-.52s-.4-.51-1.2-.51c-1.95,0-5.55.17-6.93.17s-5-.17-8-.17c-.86,0-1.26.11-1.26.51s.34.52,1,.52a11.75,11.75,0,0,1,2.23.17c1.89.4,2.35,1.32,2.46,3.26s.11,3.44.11,12.14V54.13c0,5.27,0,9.79-.29,12.2-.23,1.66-.52,2.92-1.66,3.15a9.32,9.32,0,0,1-2.06.23c-.69,0-.92.17-.92.46s.4.57,1.14.57c2.29,0,5.9-.17,7.21-.17s5,.17,8.24.17c.63,0,1.09-.17,1.09-.57s-.29-.46-.74-.46a24.07,24.07,0,0,1-2.81-.23c-1.43-.23-1.95-1.49-2.06-3.09-.17-2.46-.17-7-.17-12.25V48.92h.29l.63.86c1.2,1.66,12.48,14.89,15,17.12s4,3.44,7.1,3.72c.91.09,1.73.11,2.82.11-3.48,1.88-8.86,6.93-8.86,13.33,0,5,3.66,12.65,15.92,12.65,7.84,0,11.68-3.49,13.57-5.21a22.28,22.28,0,0,0,5.59,3.42,22.76,22.76,0,0,0-1.69,8.46c0,5.55,1.49,12,7.1,16.89,5.21,4.52,11.8,6.24,19.64,6.24,3.66,0,8-.4,10.31-1.32a2,2,0,0,0,1.49-1.66,54.49,54.49,0,0,0,1.26-7.62c0-.46-.11-.86-.52-.86s-.57.23-.74,1.15a9.56,9.56,0,0,1-1.95,3.78c-2.29,2.63-5.38,3.21-10.48,3.21-7.67,0-18-6.76-18-20.38a28.8,28.8,0,0,1,.74-6.9,18.58,18.58,0,0,1,.84-2.58A14.73,14.73,0,0,1,102,88c2.52-2.29,5.78-3.55,10.76-3.55,5.27,0,9.73,1.55,11.62,3.55a8.18,8.18,0,0,1,2.23,5.27c0,.8.11,1.26.57,1.26s.63-.46.69-1.32c.11-1.14.06-4.29.17-6.18s.29-2.69.29-3.15-.23-.63-.86-.69c-1.72-.17-3.55-.69-5.73-1a56.62,56.62,0,0,0-8.3-.57c-8.53,0-14,2.29-18.09,6.07a19.73,19.73,0,0,0-2.2,2.38Z" style="fill-rule:evenodd;fill:url(#c)"/><path d="M555.44,35.7c0-.15,0-.2.16-.2.38,0,2.77,0,3.34.07a1.32,1.32,0,0,1,1.15.8,2.39,2.39,0,0,1,.14.68c0,.16,0,.31.18.31s.23-.22.23-.42,0-1.17.09-1.61c.07-.69.18-1.24.18-1.37s0-.2-.14-.2-.18.09-.29.22a1.19,1.19,0,0,1-1,.4c-.32,0-.63,0-1,0l-2.89,0c-.14,0-.16-.07-.16-.2V28.69c0-.24.07-.31.2-.31l3.47.07a1.64,1.64,0,0,1,1.49.66,2.13,2.13,0,0,1,.14.84c0,.24.07.35.23.35s.2-.13.23-.31.09-1.57.11-1.79c.07-.57.18-.84.18-1a.18.18,0,0,0-.16-.2,1.47,1.47,0,0,0-.36.13,4.44,4.44,0,0,1-.93.09c-.52,0-5.1,0-6,0l-1.42,0-1.83,0c-.34,0-.52,0-.52.22s.16.18.38.18a4.74,4.74,0,0,1,.88.07c.74.16.92.51,1,1.26s0,1.33,0,4.69v3.89c0,2.12,0,3.78-.11,4.71-.09.64-.2,1.13-.65,1.22a3.76,3.76,0,0,1-.81.09c-.25,0-.34.07-.34.18s.16.22.47.22c.86,0,2.28-.07,2.86-.07s2,.07,3.43.07c.34,0,.5-.07.5-.22s-.09-.18-.38-.18a9.7,9.7,0,0,1-1.13-.09c-.68-.09-.81-.58-.88-1.22-.11-.93-.11-2.59-.11-4.71Zm-17,7.41c-4.33,0-6.93-3.65-6.93-8.25,0-5.51,3-6.92,5.55-6.92,3.7,0,6.61,3.07,6.61,8C543.66,42.36,540,43.11,538.42,43.11Zm-.95,1.11c5.73,0,9.34-4,9.34-9.07s-3.5-8.27-9.11-8.27c-6.77,0-9.32,4.89-9.32,8.67S531,44.21,537.48,44.21Zm-25.54,0a6.63,6.63,0,0,0,3.59-.91,4.43,4.43,0,0,0,2.12-3.85c0-2.1-1-3.63-3.7-5.64l-.63-.46c-1.87-1.39-2.39-2.17-2.39-3.18,0-1.33,1-2.28,2.68-2.28A2.88,2.88,0,0,1,516.06,29a2.64,2.64,0,0,1,.59,1.46c0,.27.07.4.23.4s.25-.18.25-.66c0-1.72.09-2.37.09-2.65s-.11-.22-.32-.27a11.13,11.13,0,0,0-3-.38c-3.14,0-5.21,1.75-5.21,4.18,0,1.79.86,3.34,3.34,5.24l1,.8c1.87,1.44,2.21,2.45,2.21,3.54a2.72,2.72,0,0,1-3,2.52A3.11,3.11,0,0,1,509,40.92a4.58,4.58,0,0,1-.2-1.13c0-.18,0-.38-.23-.38s-.25.24-.27.57-.11,1.68-.11,2.9c0,.49.07.6.43.75A8,8,0,0,0,511.94,44.21Zm-17.37-6.72c0,2,0,3.78-.11,4.71-.09.64-.2,1.13-.65,1.22a3.76,3.76,0,0,1-.81.09c-.27,0-.36.07-.36.18s.16.22.45.22c.45,0,1,0,1.56,0s1,0,1.29,0c.68,0,1.38,0,2.35.07s2.21.07,3.9.07c.86,0,1.06,0,1.22-.57a17,17,0,0,0,.29-2.45c0-.22,0-.4-.18-.4s-.2.09-.25.33c-.16.91-.43,1.37-1,1.64a5.84,5.84,0,0,1-2.12.26c-2.3,0-2.66-.33-2.71-1.86,0-.64,0-2.68,0-3.43V35.74c0-.13,0-.22.14-.22.54,0,2.77,0,3.2.07.83.09,1.15.42,1.26.86a5.68,5.68,0,0,1,.09.8.18.18,0,0,0,.2.2c.2,0,.2-.24.2-.42s.07-1,.09-1.48c.09-1.13.18-1.48.18-1.61s-.07-.18-.16-.18-.2.11-.36.29a1.6,1.6,0,0,1-1.08.33c-.52,0-3.11,0-3.61,0-.13,0-.16-.09-.16-.24V28.58c0-.15,0-.22.16-.22.45,0,2.82,0,3.2.09,1.13.13,1.35.4,1.51.8a2.34,2.34,0,0,1,.14.8c0,.2,0,.31.2.31s.2-.13.23-.24c0-.27.09-1.24.11-1.46a13.88,13.88,0,0,1,.18-1.44c0-.11,0-.2-.14-.2a2.13,2.13,0,0,0-.36.09,9.3,9.3,0,0,1-1,.13c-.43,0-4.92,0-5.64,0l-1.42,0-1.83,0c-.34,0-.5,0-.5.2s.14.2.38.2a4.74,4.74,0,0,1,.88.07c.74.16.92.51,1,1.26s0,1.33,0,4.69Zm-11,6.72a13.32,13.32,0,0,0,4.06-.51.79.79,0,0,0,.59-.64,20.65,20.65,0,0,0,.5-2.94c0-.18,0-.33-.2-.33s-.23.09-.29.44a3.66,3.66,0,0,1-.77,1.46c-.9,1-2.12,1.24-4.13,1.24a7.5,7.5,0,0,1-7.11-7.87c0-2.14.43-4.25,2.08-5.73A6,6,0,0,1,482.49,28a6.82,6.82,0,0,1,4.58,1.37,3.12,3.12,0,0,1,.88,2c0,.31,0,.49.23.49s.25-.18.27-.51,0-1.66.07-2.39.11-1,.11-1.22-.09-.24-.34-.27c-.68-.07-1.4-.27-2.26-.38a22.73,22.73,0,0,0-3.27-.22c-3.36,0-5.5.88-7.13,2.34a8.64,8.64,0,0,0,.16,12.58C477.84,43.55,480.44,44.21,483.53,44.21Zm-19.11-6.72c0,2.14,0,3.89-.11,4.82-.07.64-.2,1-.65,1.11a3.76,3.76,0,0,1-.81.09c-.27,0-.36.07-.36.18s.16.22.45.22c.9,0,2.32-.07,2.84-.07s2,.07,3.52.07c.25,0,.43-.07.43-.22s-.11-.18-.36-.18a9.72,9.72,0,0,1-1.15-.09c-.68-.09-.83-.49-.9-1.08-.09-1-.09-2.7-.09-4.84V33.6c0-3.36,0-4,0-4.69s.23-1.15.83-1.26a3.89,3.89,0,0,1,.68-.07c.23,0,.36,0,.36-.22s-.18-.18-.47-.18c-.86,0-2.19.07-2.75.07s-2.07-.07-2.93-.07c-.36,0-.54,0-.54.18s.14.22.36.22a3.26,3.26,0,0,1,.81.09c.5.11.72.49.77,1.24s0,1.33,0,4.69ZM452.16,35.7c0-.15,0-.2.16-.2.38,0,2.77,0,3.34.07a1.32,1.32,0,0,1,1.15.8,2.38,2.38,0,0,1,.14.68c0,.16,0,.31.18.31s.23-.22.23-.42,0-1.17.09-1.61c.07-.69.18-1.24.18-1.37s0-.2-.14-.2-.18.09-.29.22a1.19,1.19,0,0,1-1,.4c-.32,0-.63,0-1,0l-2.89,0c-.14,0-.16-.07-.16-.2V28.69c0-.24.07-.31.2-.31l3.47.07a1.64,1.64,0,0,1,1.49.66,2.13,2.13,0,0,1,.14.84c0,.24.07.35.23.35s.2-.13.23-.31.09-1.57.11-1.79c.07-.57.18-.84.18-1a.18.18,0,0,0-.16-.2,1.47,1.47,0,0,0-.36.13,4.44,4.44,0,0,1-.93.09c-.52,0-5.1,0-6,0l-1.42,0-1.83,0c-.34,0-.52,0-.52.22s.16.18.38.18a4.74,4.74,0,0,1,.88.07c.74.16.92.51,1,1.26s0,1.33,0,4.69v3.89c0,2.12,0,3.78-.11,4.71-.09.64-.2,1.13-.65,1.22a3.76,3.76,0,0,1-.81.09c-.25,0-.34.07-.34.18s.16.22.47.22c.86,0,2.28-.07,2.86-.07s2,.07,3.43.07c.34,0,.5-.07.5-.22s-.09-.18-.38-.18a9.7,9.7,0,0,1-1.13-.09c-.68-.09-.81-.58-.88-1.22-.11-.93-.11-2.59-.11-4.71Zm-15.1,0c0-.15,0-.2.16-.2.38,0,2.77,0,3.34.07a1.32,1.32,0,0,1,1.15.8,2.4,2.4,0,0,1,.14.68c0,.16,0,.31.18.31s.23-.22.23-.42,0-1.17.09-1.61c.07-.69.18-1.24.18-1.37s0-.2-.14-.2-.18.09-.29.22a1.19,1.19,0,0,1-1,.4c-.32,0-.63,0-1,0l-2.89,0c-.14,0-.16-.07-.16-.2V28.69c0-.24.07-.31.2-.31l3.47.07a1.64,1.64,0,0,1,1.49.66,2.13,2.13,0,0,1,.14.84c0,.24.07.35.23.35s.2-.13.23-.31.09-1.57.11-1.79c.07-.57.18-.84.18-1A.18.18,0,0,0,443,27a1.48,1.48,0,0,0-.36.13,4.44,4.44,0,0,1-.92.09c-.52,0-5.1,0-6,0l-1.42,0-1.83,0c-.34,0-.52,0-.52.22s.16.18.38.18a4.74,4.74,0,0,1,.88.07c.74.16.92.51,1,1.26s0,1.33,0,4.69v3.89c0,2.12,0,3.78-.11,4.71-.09.64-.2,1.13-.65,1.22a3.76,3.76,0,0,1-.81.09c-.25,0-.34.07-.34.18s.16.22.47.22c.86,0,2.28-.07,2.86-.07s2,.07,3.43.07c.34,0,.5-.07.5-.22s-.09-.18-.38-.18a9.71,9.71,0,0,1-1.13-.09c-.68-.09-.81-.58-.88-1.22-.11-.93-.11-2.59-.11-4.71Zm-17,7.41c-4.33,0-6.93-3.65-6.93-8.25,0-5.51,3-6.92,5.55-6.92,3.7,0,6.61,3.07,6.61,8C425.29,42.36,421.64,43.11,420.06,43.11Zm-.95,1.11c5.73,0,9.34-4,9.34-9.07s-3.5-8.27-9.11-8.27c-6.77,0-9.32,4.89-9.32,8.67S412.64,44.21,419.11,44.21Zm-36.16-.82c.2.57.29.82.52.82s.38-.27.81-1.17c1-2,4-9.86,4.4-11h0l4.69,11.08c.34.82.47,1.08.7,1.08s.41-.27.65-1c1.11-3.32,3.47-10.35,4.51-13.13.47-1.26.72-2.14,1.26-2.34a2.52,2.52,0,0,1,.79-.11c.2,0,.32-.07.32-.22s-.16-.18-.41-.18c-.74,0-1.71.07-1.87.07s-1.15-.07-2.35-.07c-.34,0-.52,0-.52.2s.16.2.38.2c.88,0,1.08.31,1.08.66a4.61,4.61,0,0,1-.23,1.28c-.79,2.59-2.59,8.42-3,9.91h-.07L390,28.3c-.29-.71-.41-1-.65-1s-.34.18-.56.8l-4.38,11.53h-.07c-.41-1.24-2.5-7.95-2.89-9.41a13.61,13.61,0,0,1-.5-2c0-.24,0-.4.25-.49a1.21,1.21,0,0,1,.56-.09c.23,0,.41,0,.41-.2s-.16-.2-.47-.2c-1.31,0-2.3.07-2.5.07s-1.44-.07-2.62-.07c-.32,0-.5,0-.5.2s.14.2.36.2a2,2,0,0,1,.9.2,3.21,3.21,0,0,1,.83,1.57ZM365.68,37c-.09,0-.11-.07-.09-.15l2.08-5.44c0-.09.07-.2.14-.2s.09.11.11.2l2,5.46c0,.07,0,.13-.11.13Zm4.58,1.11a.22.22,0,0,1,.23.15l1.8,4.69a.36.36,0,0,1-.2.51c-.23,0-.32.07-.32.2s.27.15.68.18c1.8,0,3.45,0,4.26,0s1,0,1-.22-.11-.18-.29-.18a5.06,5.06,0,0,1-.95-.09c-.47-.13-1.13-.44-2-2.42-1.44-3.35-5.05-12.37-5.59-13.59-.23-.51-.36-.71-.56-.71s-.36.24-.63.88l-5.66,13.89c-.45,1.11-.88,1.86-1.92,2-.18,0-.5,0-.7,0s-.27,0-.27.18.14.22.43.22c1.17,0,2.41-.07,2.66-.07.7,0,1.67.07,2.39.07.25,0,.38,0,.38-.22s-.07-.18-.34-.18h-.34c-.7,0-.9-.29-.9-.69a4.21,4.21,0,0,1,.34-1.35L365,38.31c0-.13.09-.18.2-.18ZM352,33.6c0-3.36,0-4,0-4.69s.23-1.15.83-1.26a6.14,6.14,0,0,1,.88-.07c.27,0,.41,0,.41-.2s-.16-.2-.47-.2c-.88,0-2.53.07-3.07.07s-2-.07-3.09-.07c-.34,0-.5,0-.5.2s.14.2.38.2a3.42,3.42,0,0,1,.74.07c.74.16.92.51,1,1.26s0,1.33,0,4.69v3.89c0,2,0,3.78-.11,4.71-.09.64-.2,1.13-.65,1.22a3.76,3.76,0,0,1-.81.09c-.27,0-.36.07-.36.18s.16.22.45.22c.45,0,1,0,1.56,0s1,0,1.29,0c.93,0,1.74,0,2.75.07s2.19.07,3.81.07c1.17,0,1.29-.11,1.42-.6a17.13,17.13,0,0,0,.34-2.54c0-.27,0-.38-.18-.38s-.23.13-.25.33a2.75,2.75,0,0,1-.59,1.33c-.56.6-1.44.62-2.64.62-1.76,0-2.35-.15-2.73-.49s-.47-1.92-.47-4.75Z" style="fill-rule:evenodd;fill:url(#d)"/><path d="M570,129.47a6.63,6.63,0,0,0,3.59-.91,4.43,4.43,0,0,0,2.12-3.85c0-2.1-1-3.63-3.7-5.64l-.63-.46c-1.87-1.39-2.39-2.17-2.39-3.18,0-1.33,1-2.28,2.68-2.28a2.88,2.88,0,0,1,2.46,1.08,2.65,2.65,0,0,1,.59,1.46c0,.27.07.4.23.4s.25-.18.25-.66c0-1.72.09-2.37.09-2.65s-.11-.22-.32-.27a11.13,11.13,0,0,0-3-.38c-3.14,0-5.21,1.75-5.21,4.18,0,1.79.86,3.34,3.34,5.24l1,.8c1.87,1.44,2.21,2.45,2.21,3.54a2.72,2.72,0,0,1-3,2.52,3.11,3.11,0,0,1-3.23-2.23,4.57,4.57,0,0,1-.2-1.13c0-.18,0-.38-.23-.38s-.25.24-.27.57-.11,1.68-.11,2.9c0,.49.07.6.43.75a8,8,0,0,0,3.29.57m-16-4.22c0,.35,0,1.28-.07,2.21,0,.64-.25,1.13-.7,1.22a3.71,3.71,0,0,1-.79.09c-.25,0-.36.07-.36.18s.18.22.5.22c.83,0,2.26-.07,2.82-.07s2,.07,3.45.07c.29,0,.47-.07.47-.22s-.11-.18-.36-.18a9.71,9.71,0,0,1-1.13-.09c-.68-.09-.88-.58-.92-1.22-.07-.93-.07-1.86-.07-2.21v-1.81a5.2,5.2,0,0,1,.34-2.21,70.19,70.19,0,0,1,4.31-7,3.33,3.33,0,0,1,1.22-1.08,2.48,2.48,0,0,1,1-.27c.25,0,.43-.07.43-.22s-.16-.18-.41-.18c-.43,0-1.92.07-2.41.07-.65,0-1.38-.07-2.12-.07-.27,0-.38,0-.38.2s.2.18.41.22a.53.53,0,0,1,.47.55,2.84,2.84,0,0,1-.32,1.15c-.32.69-3.16,5.55-3.38,6.08-.36-.62-3.52-5.95-3.83-6.61a2,2,0,0,1-.27-.75.4.4,0,0,1,.32-.4c.34-.09.5-.11.5-.24s-.11-.2-.34-.2c-1,0-1.94.07-2.41.07-.74,0-2.44-.07-2.84-.07s-.43.07-.43.2.16.2.34.2a2.32,2.32,0,0,1,.95.29,5.45,5.45,0,0,1,1.56,1.61c.79,1.15,3.81,6,4,6.37a4.61,4.61,0,0,1,.52,2.32Zm-18.39-2.5c0,2,0,3.78-.11,4.71-.09.64-.2,1.13-.65,1.22a3.76,3.76,0,0,1-.81.09c-.27,0-.36.07-.36.18s.16.22.45.22c.45,0,1,0,1.56,0s1,0,1.29,0c.68,0,1.38,0,2.35.07s2.21.07,3.9.07c.86,0,1.06,0,1.22-.57a17,17,0,0,0,.29-2.45c0-.22,0-.4-.18-.4s-.2.09-.25.33c-.16.91-.43,1.37-1,1.64a5.83,5.83,0,0,1-2.12.27c-2.3,0-2.66-.33-2.71-1.86,0-.64,0-2.68,0-3.43V121c0-.13,0-.22.14-.22.54,0,2.77,0,3.2.07.83.09,1.15.42,1.26.86a5.69,5.69,0,0,1,.09.8.18.18,0,0,0,.2.2c.2,0,.2-.24.2-.42s.07-1,.09-1.48c.09-1.13.18-1.48.18-1.61s-.07-.18-.16-.18-.2.11-.36.29a1.6,1.6,0,0,1-1.08.33c-.52,0-3.11,0-3.61,0-.13,0-.16-.09-.16-.24v-5.59c0-.15,0-.22.16-.22.45,0,2.82,0,3.2.09,1.13.13,1.35.4,1.51.8a2.34,2.34,0,0,1,.14.8c0,.2,0,.31.2.31s.2-.13.23-.24c0-.27.09-1.24.11-1.46a13.85,13.85,0,0,1,.18-1.44c0-.11,0-.2-.14-.2a2.12,2.12,0,0,0-.36.09,9.31,9.31,0,0,1-1,.13c-.43,0-4.92,0-5.64,0l-1.42,0-1.83,0c-.34,0-.5,0-.5.2s.14.2.38.2a4.74,4.74,0,0,1,.88.07c.74.15.92.51,1,1.26s0,1.33,0,4.69Zm-21.68-5.88H514c.41.42,2.91,3.18,5.37,5.57s5.23,5.17,6.65,6.5c.25.24.52.49.77.49s.29-.2.29-.69l.25-14c0-1.24.2-1.7.83-1.88a2.5,2.5,0,0,1,.68-.07q.41,0,.41-.2c0-.18-.23-.2-.52-.2-1.11,0-2,.07-2.21.07-.47,0-1.56-.07-2.73-.07-.34,0-.59,0-.59.2s.09.2.36.2a3.72,3.72,0,0,1,1.19.13c.54.22.74.64.77,2l.23,9.93h-.11c-.38-.35-3.43-3.54-5-5-3.29-3.21-6.72-6.81-7-7.1s-.59-.69-.84-.69-.29.31-.29.75l-.2,13.09c0,1.92-.11,2.56-.7,2.74a4.07,4.07,0,0,1-1,.11c-.23,0-.36,0-.36.18s.2.22.5.22c1.17,0,2.23-.07,2.44-.07.43,0,1.33.07,2.8.07.32,0,.52,0,.52-.22s-.14-.18-.38-.18a3.65,3.65,0,0,1-1.17-.15c-.45-.15-.74-.73-.79-2.45Zm-16.73-3c0-.18,0-.27.2-.31a5.05,5.05,0,0,1,1.2-.09c1.33,0,3.45.91,3.45,4a3.86,3.86,0,0,1-1.33,3.32,2.29,2.29,0,0,1-1.6.38,6.06,6.06,0,0,1-1.71-.22c-.16-.07-.2-.15-.2-.4Zm-2.66,8.87c0,2,0,3.78-.11,4.71-.09.64-.2,1.13-.65,1.22a3.76,3.76,0,0,1-.81.09c-.27,0-.36.07-.36.18s.16.22.45.22c.9,0,2.32-.07,2.75-.07s2,.07,3.32.07c.29,0,.45-.07.45-.22s-.09-.18-.27-.18a10.61,10.61,0,0,1-1.11-.09c-.68-.09-.81-.58-.88-1.22-.11-.93-.11-2.68-.11-4.73v-.31c0-.13.07-.18.18-.18l2,0a.48.48,0,0,1,.41.15c.29.33,1.33,1.84,2.23,3.05,1.26,1.7,2.12,2.74,3.09,3.25a4.67,4.67,0,0,0,2.41.42h2.14c.27,0,.43,0,.43-.22s-.09-.18-.27-.18a3.6,3.6,0,0,1-.63-.07,4.51,4.51,0,0,1-2.53-1.5c-1.33-1.37-2.89-3.34-4.9-5.82,2.28-1.81,3-3.32,3-5a3.81,3.81,0,0,0-1.53-3,7.33,7.33,0,0,0-4.15-1c-.7,0-2.41.07-3.18.07-.47,0-1.89-.07-3.09-.07-.34,0-.5,0-.5.2s.14.2.38.2a4.74,4.74,0,0,1,.88.07c.74.15.92.51,1,1.26s0,1.33,0,4.69Zm-14.45,5.62c-4.33,0-6.93-3.65-6.93-8.25,0-5.51,3-6.92,5.55-6.92,3.7,0,6.61,3.07,6.61,8C485.29,127.62,481.63,128.37,480.05,128.37Zm-.95,1.11c5.73,0,9.34-4,9.34-9.07s-3.5-8.27-9.11-8.27c-6.77,0-9.32,4.89-9.32,8.67S472.63,129.47,479.11,129.47Zm-20.7-6.72c0,2,0,3.78-.11,4.71-.07.64-.2,1.13-.65,1.22a3.76,3.76,0,0,1-.81.09c-.27,0-.36.07-.36.18s.16.22.45.22c.9,0,2.32-.07,2.84-.07s2.05.07,3.54.07c.25,0,.43-.07.43-.22s-.11-.18-.36-.18a9.7,9.7,0,0,1-1.15-.09c-.68-.09-.81-.58-.88-1.19-.11-1-.11-2.7-.11-4.73v-9.07l2.84.07c2,0,2.62.66,2.66,1.24l0,.24c0,.33.07.44.25.44s.18-.13.2-.35c0-.58.07-2.1.07-2.57s0-.46-.18-.46a5.56,5.56,0,0,0-.61.11,11,11,0,0,1-1.56.11H456c-.74,0-1.6,0-2.26-.11a5.28,5.28,0,0,1-1-.27c-.14,0-.2.13-.27.42s-.47,2.19-.47,2.54,0,.35.2.35.2-.09.25-.27a2.61,2.61,0,0,1,.38-.77c.34-.49.88-.6,2.19-.64l3.36-.09Zm-17.36,0c0,2,0,3.78-.11,4.71-.07.64-.2,1.13-.65,1.22a3.76,3.76,0,0,1-.81.09c-.27,0-.36.07-.36.18s.16.22.45.22c.9,0,2.32-.07,2.84-.07s2.05.07,3.54.07c.25,0,.43-.07.43-.22s-.11-.18-.36-.18a9.72,9.72,0,0,1-1.15-.09c-.68-.09-.81-.58-.88-1.19-.11-1-.11-2.7-.11-4.73v-9.07l2.84.07c2,0,2.62.66,2.66,1.24l0,.24c0,.33.07.44.25.44s.18-.13.2-.35c0-.58.07-2.1.07-2.57s0-.46-.18-.46a5.56,5.56,0,0,0-.61.11,11,11,0,0,1-1.56.11h-8.93c-.74,0-1.6,0-2.26-.11a5.29,5.29,0,0,1-1-.27c-.14,0-.2.13-.27.42s-.47,2.19-.47,2.54,0,.35.2.35.2-.09.25-.27a2.6,2.6,0,0,1,.38-.77c.34-.49.88-.6,2.19-.64l3.36-.09Zm-17.31-.46c-.09,0-.11-.07-.09-.15l2.08-5.44c0-.09.07-.2.14-.2s.09.11.11.2l2,5.46c0,.07,0,.13-.11.13Zm4.58,1.11a.22.22,0,0,1,.23.15l1.8,4.69a.36.36,0,0,1-.2.51c-.23,0-.32.07-.32.2s.27.16.68.18c1.8,0,3.45,0,4.26,0s1,0,1-.22-.11-.18-.29-.18a5,5,0,0,1-.95-.09c-.47-.13-1.13-.44-2-2.42-1.44-3.35-5.05-12.37-5.59-13.59-.23-.51-.36-.71-.56-.71s-.36.24-.63.88l-5.66,13.89c-.45,1.11-.88,1.86-1.92,2a6.93,6.93,0,0,1-.7,0c-.18,0-.27,0-.27.18s.14.22.43.22c1.17,0,2.41-.07,2.66-.07.7,0,1.67.07,2.39.07.25,0,.38,0,.38-.22s-.07-.18-.34-.18h-.34c-.7,0-.9-.29-.9-.69a4.21,4.21,0,0,1,.34-1.35l1.22-3.16c0-.13.09-.18.2-.18Zm-24.87-4.53c0-3.36,0-4,0-4.69s.23-1.15.83-1.26a6.13,6.13,0,0,1,.88-.07c.27,0,.41,0,.41-.2s-.16-.2-.47-.2c-.88,0-2.53.07-3.07.07s-2-.07-3.09-.07c-.34,0-.5,0-.5.2s.14.2.38.2a3.42,3.42,0,0,1,.74.07c.74.15.92.51,1,1.26s0,1.33,0,4.69v3.89c0,2,0,3.78-.11,4.71-.09.64-.2,1.13-.65,1.22a3.76,3.76,0,0,1-.81.09c-.27,0-.36.07-.36.18s.16.22.45.22c.45,0,1,0,1.56,0s1,0,1.29,0c.93,0,1.74,0,2.75.07s2.19.07,3.81.07c1.17,0,1.29-.11,1.42-.6a17.17,17.17,0,0,0,.34-2.54c0-.27,0-.38-.18-.38s-.23.13-.25.33a2.75,2.75,0,0,1-.59,1.33c-.56.6-1.44.62-2.64.62-1.76,0-2.35-.15-2.73-.49s-.47-1.92-.47-4.75Zm-18.6,3.43c-.09,0-.11-.07-.09-.15l2.07-5.44c0-.09.07-.2.14-.2s.09.11.11.2l2,5.46c0,.07,0,.13-.11.13Zm4.58,1.11a.22.22,0,0,1,.23.15l1.8,4.69a.36.36,0,0,1-.2.51c-.23,0-.32.07-.32.2s.27.16.68.18c1.8,0,3.45,0,4.26,0s1,0,1-.22-.11-.18-.29-.18a5,5,0,0,1-.95-.09c-.47-.13-1.13-.44-2-2.42-1.44-3.35-5.05-12.37-5.59-13.59-.23-.51-.36-.71-.56-.71s-.36.24-.63.88l-5.66,13.89c-.45,1.11-.88,1.86-1.92,2a6.92,6.92,0,0,1-.7,0c-.18,0-.27,0-.27.18s.14.22.43.22c1.17,0,2.41-.07,2.66-.07.7,0,1.67.07,2.39.07.25,0,.38,0,.38-.22s-.07-.18-.34-.18h-.34c-.7,0-.9-.29-.9-.69a4.22,4.22,0,0,1,.34-1.35l1.22-3.16c0-.13.09-.18.2-.18ZM372,122.75c0,2.14,0,3.89-.11,4.82-.07.64-.2,1-.65,1.11a3.76,3.76,0,0,1-.81.09c-.27,0-.36.07-.36.18s.16.22.45.22c.9,0,2.32-.07,2.84-.07s2,.07,3.52.07c.25,0,.43-.07.43-.22s-.11-.18-.36-.18a9.71,9.71,0,0,1-1.15-.09c-.68-.09-.83-.49-.9-1.08-.09-1-.09-2.7-.09-4.84v-3.89c0-3.36,0-4,0-4.69s.23-1.15.83-1.26a3.9,3.9,0,0,1,.68-.07c.23,0,.36,0,.36-.22s-.18-.18-.47-.18c-.86,0-2.19.07-2.75.07s-2.08-.07-2.93-.07c-.36,0-.54,0-.54.18s.14.22.36.22a3.26,3.26,0,0,1,.81.09c.5.11.72.49.77,1.24s0,1.33,0,4.69Zm-15.71-8.87c0-.18,0-.27.2-.31a5,5,0,0,1,1.2-.09c1.33,0,3.45.91,3.45,4a3.86,3.86,0,0,1-1.33,3.32,2.29,2.29,0,0,1-1.6.38,6.06,6.06,0,0,1-1.71-.22c-.16-.07-.2-.15-.2-.4Zm-2.66,8.87c0,2,0,3.78-.11,4.71-.09.64-.2,1.13-.65,1.22a3.76,3.76,0,0,1-.81.09c-.27,0-.36.07-.36.18s.16.22.45.22c.9,0,2.32-.07,2.75-.07s2,.07,3.32.07c.29,0,.45-.07.45-.22s-.09-.18-.27-.18a10.59,10.59,0,0,1-1.11-.09c-.68-.09-.81-.58-.88-1.22-.11-.93-.11-2.68-.11-4.73v-.31c0-.13.07-.18.18-.18l2,0a.48.48,0,0,1,.41.15c.29.33,1.33,1.84,2.23,3.05,1.26,1.7,2.12,2.74,3.09,3.25a4.67,4.67,0,0,0,2.41.42h2.14c.27,0,.43,0,.43-.22s-.09-.18-.27-.18a3.6,3.6,0,0,1-.63-.07,4.52,4.52,0,0,1-2.53-1.5c-1.33-1.37-2.89-3.34-4.9-5.82,2.28-1.81,3-3.32,3-5a3.81,3.81,0,0,0-1.53-3,7.33,7.33,0,0,0-4.15-1c-.7,0-2.41.07-3.18.07-.47,0-1.89-.07-3.09-.07-.34,0-.5,0-.5.2s.14.2.38.2a4.74,4.74,0,0,1,.88.07c.74.15.92.51,1,1.26s0,1.33,0,4.69Zm-14.36,0c0,2,0,3.78-.11,4.71-.07.64-.2,1.13-.65,1.22a3.75,3.75,0,0,1-.81.09c-.27,0-.36.07-.36.18s.16.22.45.22c.9,0,2.32-.07,2.84-.07s2.05.07,3.54.07c.25,0,.43-.07.43-.22s-.11-.18-.36-.18a9.7,9.7,0,0,1-1.15-.09c-.68-.09-.81-.58-.88-1.19-.11-1-.11-2.7-.11-4.73v-9.07l2.84.07c2,0,2.62.66,2.66,1.24l0,.24c0,.33.07.44.25.44s.18-.13.2-.35c0-.58.07-2.1.07-2.57s0-.46-.18-.46a5.55,5.55,0,0,0-.61.11,11,11,0,0,1-1.56.11h-8.93c-.74,0-1.6,0-2.26-.11a5.28,5.28,0,0,1-1-.27c-.14,0-.2.13-.27.42s-.47,2.19-.47,2.54,0,.35.2.35.2-.09.25-.27a2.6,2.6,0,0,1,.38-.77c.34-.49.88-.6,2.19-.64l3.36-.09Z" style="fill-rule:evenodd;fill:url(#e)"/><path d="M243.63,79.7c0,7.56,2,11.41,4.73,13.81,3.88,3.44,9,3.6,11.8,3.6a16.07,16.07,0,0,0,11.06-3.75c4.47-3.75,5-9.9,5-15.68V72.1c0-7.92,0-9.38.11-11,.11-1.82.53-2.71,2-3a8.17,8.17,0,0,1,1.54-.16c.64,0,1-.1,1-.47s-.37-.47-1.12-.47c-2.07,0-5.42.16-6.06.16-.05,0-3.4-.16-6.11-.16-.74,0-1.12.1-1.12.47s.32.47.9.47a10.52,10.52,0,0,1,1.91.16c1.75.36,2.18,1.2,2.29,3s.11,3.13.11,11v6.51c0,5.37-.16,10.06-3.08,12.92a10.53,10.53,0,0,1-7.34,2.81,10,10,0,0,1-6.64-2.14c-2.6-2.08-4.15-5.26-4.15-12.82V72.1c0-7.92,0-9.38.11-11,.11-1.82.53-2.71,2-3a8.17,8.17,0,0,1,1.54-.16c.53,0,.85-.1.85-.47s-.37-.47-1.17-.47c-1.91,0-5.26.16-6.54.16-1.59,0-4.94-.16-7.76-.16-.8,0-1.17.1-1.17.47s.32.47.9.47a11.17,11.17,0,0,1,2.07.16c1.75.36,2.18,1.2,2.29,3s.11,3.13.11,11Zm66.13,7.82c0,5.42-4,6.67-6.43,6.67a9.75,9.75,0,0,1-3.88-.62c-1.7-.68-1.86-1.56-1.86-5V76.21c0-.26.11-.36.32-.36.8,0,1.33,0,2.29.05a7.74,7.74,0,0,1,4.41,1.25A12.32,12.32,0,0,1,309.76,87.52ZM297.58,60.11c0-.57.11-.78.48-.89a8.77,8.77,0,0,1,1.75-.1c4.57,0,6.64,4.59,6.64,8.08,0,2.55-.8,4.43-2.18,5.52-.9.78-2.07,1-3.83,1a13.22,13.22,0,0,1-2.5-.16c-.21-.05-.37-.16-.37-.57ZM291.2,81.27c0,4.79,0,8.91-.27,11.1-.21,1.51-.48,2.66-1.54,2.87a8.85,8.85,0,0,1-1.91.21c-.64,0-.85.16-.85.42s.37.52,1.06.52c1.06,0,2.45-.1,3.67-.1s2.45-.05,3-.05c.8,0,2.39.05,4,.16s3.08.16,3.72.16c9.78,0,14.19-5.78,14.19-11.36,0-6.1-5.32-9.8-9.68-11.25,2.92-2.29,5.42-4.85,5.42-9.12C312,62,310.34,57,300.72,57c-1.81,0-3.88.16-6.49.16-1.06,0-4.41-.16-7.23-.16-.8,0-1.17.1-1.17.47s.32.47.9.47a11.17,11.17,0,0,1,2.07.16c1.75.36,2.18,1.2,2.29,3s.11,3.13.11,11ZM345.58,94.5c-10.21,0-16.32-8.6-16.32-19.43,0-13,7-16.31,13.08-16.31,8.72,0,15.58,7.24,15.58,18.91C357.92,92.73,349.31,94.5,345.58,94.5Zm-2.23,2.61c13.5,0,22-9.43,22-21.36s-8.24-19.49-21.48-19.49c-15.95,0-22,11.52-22,20.42C321.93,85.9,328.1,97.11,343.35,97.11Zm39.76-15.84c0,4.79,0,8.91-.27,11.1-.16,1.51-.48,2.66-1.54,2.87a8.86,8.86,0,0,1-1.91.21c-.64,0-.85.16-.85.42s.37.52,1.06.52c2.13,0,5.48-.16,6.7-.16,1.49,0,4.84.16,8.35.16.58,0,1-.16,1-.52s-.27-.42-.85-.42a22.89,22.89,0,0,1-2.71-.21c-1.59-.21-1.91-1.35-2.07-2.81-.27-2.24-.27-6.36-.27-11.15V59.9l6.7.16c4.73.1,6.17,1.56,6.27,2.92l.05.57c.05.78.16,1,.58,1s.43-.31.48-.83c0-1.35.16-4.95.16-6,0-.78-.05-1.09-.43-1.09a13,13,0,0,0-1.44.26,25.92,25.92,0,0,1-3.67.26H377.43c-1.75,0-3.77-.1-5.32-.26a12.49,12.49,0,0,1-2.29-.63c-.32,0-.48.31-.64,1-.11.42-1.12,5.16-1.12,6,0,.57.11.83.48.83s.48-.21.58-.63a6.13,6.13,0,0,1,.9-1.82c.8-1.15,2.07-1.41,5.16-1.51l7.92-.21Zm30.67-1.09c-.21,0-.27-.16-.21-.36L418.47,67c.05-.21.16-.47.32-.47s.21.26.27.47l4.78,12.87c.05.16,0,.31-.27.31Zm10.79,2.61a.51.51,0,0,1,.53.36l4.25,11a.84.84,0,0,1-.48,1.2c-.53.05-.74.16-.74.47s.64.36,1.59.42c4.25.1,8.13.1,10,.1s2.45-.1,2.45-.52-.27-.42-.69-.42a11.88,11.88,0,0,1-2.23-.21c-1.12-.31-2.66-1-4.68-5.71-3.4-7.89-11.91-29.15-13.18-32-.53-1.2-.85-1.67-1.33-1.67s-.85.57-1.49,2.08L405.28,90.65c-1.06,2.61-2.07,4.38-4.52,4.69a16.32,16.32,0,0,1-1.65.1c-.43,0-.64.1-.64.42s.32.52,1,.52c2.76,0,5.69-.16,6.27-.16,1.65,0,3.93.16,5.63.16.58,0,.9-.1.9-.52s-.16-.42-.8-.42h-.8c-1.65,0-2.13-.68-2.13-1.62a10,10,0,0,1,.8-3.18l2.87-7.45c.11-.31.21-.42.48-.42ZM532.52,97.11c3.4,0,7.44-.36,9.57-1.2a1.85,1.85,0,0,0,1.38-1.51,48.63,48.63,0,0,0,1.17-6.93c0-.42-.11-.78-.48-.78s-.53.21-.69,1a8.63,8.63,0,0,1-1.81,3.44c-2.13,2.4-5,2.92-9.73,2.92-7.12,0-16.75-6.15-16.75-18.55,0-5.05,1-10,4.89-13.49,2.34-2.08,5.37-3.23,10-3.23,4.89,0,9,1.41,10.79,3.23a7.36,7.36,0,0,1,2.07,4.79c0,.73.11,1.15.53,1.15s.58-.42.64-1.2c.11-1,.05-3.91.16-5.63s.27-2.45.27-2.87-.21-.57-.8-.63c-1.59-.16-3.3-.63-5.32-.89a53.56,53.56,0,0,0-7.71-.52c-7.92,0-13,2.08-16.8,5.52a19.4,19.4,0,0,0-6.22,14.28c0,5.05,1.38,10.89,6.59,15.37C519.13,95.54,525.24,97.11,532.52,97.11Zm26.17-36.73c0-.42.11-.63.48-.73a11.89,11.89,0,0,1,2.82-.21c3.14,0,8.13,2.14,8.13,9.54,0,4.27-1.54,6.67-3.14,7.82-1,.68-1.65.89-3.77.89a14.27,14.27,0,0,1-4-.52c-.37-.16-.48-.36-.48-.94Zm-6.27,20.89c0,4.79,0,8.91-.27,11.1-.21,1.51-.48,2.66-1.54,2.87a8.85,8.85,0,0,1-1.91.21c-.64,0-.85.16-.85.42s.37.52,1.06.52c2.13,0,5.48-.16,6.49-.16.8,0,4.73.16,7.81.16.69,0,1.06-.16,1.06-.52s-.21-.42-.64-.42a25,25,0,0,1-2.6-.21c-1.59-.21-1.91-1.35-2.07-2.87-.27-2.19-.27-6.3-.27-11.15v-.73c0-.31.16-.42.43-.42l4.62.1a1.12,1.12,0,0,1,1,.36c.69.78,3.14,4.32,5.26,7.19,3,4,5,6.46,7.28,7.66,1.38.73,2.71,1,5.69,1H588c.64,0,1-.1,1-.52,0-.26-.21-.42-.64-.42a8.52,8.52,0,0,1-1.49-.16c-.8-.16-3-.52-6-3.54-3.14-3.23-6.8-7.87-11.54-13.7,5.37-4.27,7-7.82,7-11.67a9,9,0,0,0-3.61-7.14C569.91,57.3,566.35,57,563,57c-1.65,0-5.69.16-7.5.16-1.12,0-4.47-.16-7.28-.16-.8,0-1.17.1-1.17.47s.32.47.9.47a11.16,11.16,0,0,1,2.07.16c1.75.36,2.18,1.2,2.29,3s.11,3.13.11,11ZM605,80.17c-.21,0-.27-.16-.21-.36L609.64,67c.05-.21.16-.47.32-.47s.21.26.27.47L615,79.86c.05.16,0,.31-.27.31Zm10.79,2.61a.51.51,0,0,1,.53.36l4.25,11a.84.84,0,0,1-.48,1.2c-.53.05-.74.16-.74.47s.64.36,1.59.42c4.25.1,8.13.1,10,.1s2.45-.1,2.45-.52-.27-.42-.69-.42a11.88,11.88,0,0,1-2.23-.21c-1.12-.31-2.66-1-4.68-5.71-3.4-7.89-11.91-29.15-13.18-32-.53-1.2-.85-1.67-1.33-1.67s-.85.57-1.49,2.08L596.46,90.65c-1.06,2.61-2.07,4.38-4.52,4.69a16.32,16.32,0,0,1-1.65.1c-.43,0-.64.1-.64.42s.32.52,1,.52c2.76,0,5.69-.16,6.27-.16,1.65,0,3.93.16,5.63.16.58,0,.9-.1.9-.52s-.16-.42-.8-.42h-.8c-1.65,0-2.13-.68-2.13-1.62a9.94,9.94,0,0,1,.8-3.18l2.87-7.45c.11-.31.21-.42.48-.42Zm22.5-1.51c0,5.05,0,9.17-.27,11.36-.16,1.51-.48,2.4-1.54,2.61a8.86,8.86,0,0,1-1.91.21c-.64,0-.85.16-.85.42s.37.52,1.06.52c2.13,0,5.48-.16,6.7-.16,1.44,0,4.78.16,8.29.16.58,0,1-.16,1-.52s-.27-.42-.85-.42a22.89,22.89,0,0,1-2.71-.21c-1.59-.21-2-1.15-2.13-2.55-.21-2.24-.21-6.36-.21-11.41V72.1c0-7.92,0-9.38.11-11,.11-1.82.53-2.71,2-3a9.18,9.18,0,0,1,1.59-.16c.53,0,.85-.1.85-.52s-.43-.42-1.12-.42c-2,0-5.16.16-6.49.16-1.54,0-4.89-.16-6.91-.16-.85,0-1.28.1-1.28.42s.32.52.85.52a7.71,7.71,0,0,1,1.91.21c1.17.26,1.7,1.15,1.81,2.92s.11,3.13.11,11Zm50.88,5.89c0-2.61,0-4.69.05-6.25.05-1.82.58-2.71,2-3a8.52,8.52,0,0,1,1.44-.16c.37,0,.69-.1.69-.42s-.37-.52-1.06-.52c-1.75,0-4.57.16-6.22.16s-4.94-.16-7.71-.16c-.74,0-1.12.1-1.12.52s.32.42.8.42a11.14,11.14,0,0,1,2.07.16c1.75.36,2.23,1.2,2.29,3,.05,1.56.05,3.54.05,6.15v4.9a1.84,1.84,0,0,1-1,1.93,12,12,0,0,1-4.52.57c-11.22,0-18.5-8.39-18.5-19.59,0-6.41,1.91-10.32,4.89-12.77,3.72-3,7.6-3.23,10.53-3.23,6,0,10.26,2.4,11.85,4.06a7.23,7.23,0,0,1,1.81,4.32c.05.42.16.68.53.68s.58-.26.58-1.09a68.87,68.87,0,0,1,.37-8.55c0-.36-.11-.57-.74-.63a35.39,35.39,0,0,1-4.2-.57,65.22,65.22,0,0,0-9.41-.83c-4.47,0-9.2.36-14.3,3.39a19.4,19.4,0,0,0-9.25,17c0,14.38,11.54,20.42,24.56,20.42,4.15,0,9.36-.57,12.81-2.34.64-.36.69-.47.69-1.88ZM211.57,72.1c0-7.92,0-9.38.11-11,.11-1.82.53-2.71,2-3a8.08,8.08,0,0,1,1.49-.16c.42,0,.74-.1.74-.47s-.37-.47-1.12-.47c-1.81,0-5.16.16-6.43.16S203.7,57,200.89,57c-.8,0-1.17.1-1.17.47s.32.47.9.47a11.17,11.17,0,0,1,2.07.16c1.75.36,2.18,1.2,2.29,3s.11,3.13.11,11v9.17c0,4.79,0,8.91-.27,11.1-.21,1.51-.48,2.66-1.54,2.87a8.86,8.86,0,0,1-1.91.21c-.64,0-.85.16-.85.42s.37.52,1.06.52c2.13,0,5.48-.16,6.7-.16s4.68.16,7.65.16c.58,0,1-.16,1-.52s-.27-.42-.69-.42a22.91,22.91,0,0,1-2.6-.21c-1.33-.21-1.81-1.35-1.91-2.81-.16-2.24-.16-6.36-.16-11.15V76.53h.27l.58.78c1.12,1.51,11.59,13.55,13.93,15.58s3.72,3.13,6.59,3.39c1.12.1,2.07.1,3.67.1h4.62c1,0,1.28-.16,1.28-.52s-.32-.42-.69-.42a9.39,9.39,0,0,1-3.3-.78c-2.87-1.09-5.26-3.44-7.6-5.63-2.07-1.93-12.49-12.92-14.41-15.37,1.81-1.88,9.83-9.69,11.48-11.25a17,17,0,0,1,5.74-3.91,10.57,10.57,0,0,1,3.08-.57c.53,0,.8-.1.8-.47s-.37-.47-.9-.47c-1.65,0-4.57.16-6.22.16-1.43,0-4.36-.16-5.48-.16-.58,0-.85.1-.85.47s.21.42.69.52.74.47.74,1c0,.89-1.17,2.19-2.66,3.91s-9.3,9.54-11.11,11.46h-.27Z" style="fill-rule:evenodd;fill:url(#f)"/><line x1="335.53" y1="36.18" x2="198.92" y2="36.18" style="fill:none;stroke:#696969;stroke-miterlimit:10;stroke-width:1.61321043798633px"/><line x1="693.49" y1="36.18" x2="572.43" y2="36.18" style="fill:none;stroke:#696969;stroke-miterlimit:10;stroke-width:1.61321043798633px"/><line x1="324.23" y1="120" x2="198.92" y2="120" style="fill:none;stroke:#696969;stroke-miterlimit:10;stroke-width:1.61321043798633px"/><line x1="693.49" y1="120" x2="586.26" y2="120" style="fill:none;stroke:#696969;stroke-miterlimit:10;stroke-width:1.61321043798633px"/><path d="M462.87,73.15a9.76,9.76,0,0,1-2.25-6.27c0-3.49,3-8.12,10.72-8.12a15.1,15.1,0,0,1,5.34.93c.75.26.75.62.75,1.15a53.12,53.12,0,0,1-.49,5.65c-.09.66-.26.75-.53.75s-.31-.18-.31-.84a5.74,5.74,0,0,0-1.28-3.71,6.07,6.07,0,0,0-4.9-2,4.71,4.71,0,0,0-4.72,5c0,4.15,3.79,7.68,7.33,11.61,1.5,1.72,6.93,6.62,7.77,7.37a13.3,13.3,0,0,0,2.12-6.8,2.55,2.55,0,0,0-.84-2,3.3,3.3,0,0,0-2.16-.66c-.27,0-.53-.09-.53-.35s.35-.44.71-.44a49.47,49.47,0,0,1,5.3.31c.84.09,1.5.35,1.5.88,0,3.4-1.81,7.5-4.33,10.46a45.41,45.41,0,0,0,6.13,4.32,13,13,0,0,0,4.72,1.54c.4,0,.62,0,.62.4s-.35.4-1.32.4h-3.4c-5,0-6.62-.49-10.41-3.4a14.19,14.19,0,0,1-10.46,4c-9.44,0-12.27-5.91-12.27-9.75C455.68,78.44,460.23,74.43,462.87,73.15Zm13.81,14.78c-2.56-2.21-6.8-6.35-7.94-7.59s-4-4.41-4.72-5.52a7.9,7.9,0,0,0-3,6.71c0,5.52,3.88,9,8.47,9A11.68,11.68,0,0,0,476.69,87.93Z" style="fill:url(#g)"/></svg>